<svg width="12" height="12" viewBox="0 0 12 12" fill="none" xmlns="http://www.w3.org/2000/svg">
<path d="M0.969364 0.968997C1.03903 0.899153 1.1218 0.843738 1.21291 0.805928C1.30403 0.768119 1.40171 0.748657 1.50036 0.748657C1.59901 0.748657 1.6967 0.768119 1.78781 0.805928C1.87893 0.843738 1.9617 0.899153 2.03136 0.968997L6.00036 4.9395L9.96936 0.968997C10.0391 0.899266 10.1219 0.843951 10.213 0.806212C10.3041 0.768474 10.4017 0.74905 10.5004 0.74905C10.599 0.74905 10.6966 0.768474 10.7877 0.806212C10.8788 0.843951 10.9616 0.899266 11.0314 0.968997C11.1011 1.03873 11.1564 1.12151 11.1941 1.21262C11.2319 1.30373 11.2513 1.40138 11.2513 1.5C11.2513 1.59861 11.2319 1.69626 11.1941 1.78737C11.1564 1.87848 11.1011 1.96127 11.0314 2.031L7.06086 6L11.0314 9.969C11.1011 10.0387 11.1564 10.1215 11.1941 10.2126C11.2319 10.3037 11.2513 10.4014 11.2513 10.5C11.2513 10.5986 11.2319 10.6963 11.1941 10.7874C11.1564 10.8785 11.1011 10.9613 11.0314 11.031C10.9616 11.1007 10.8788 11.156 10.7877 11.1938C10.6966 11.2315 10.599 11.2509 10.5004 11.2509C10.4017 11.2509 10.3041 11.2315 10.213 11.1938C10.1219 11.156 10.0391 11.1007 9.96936 11.031L6.00036 7.0605L2.03136 11.031C1.96163 11.1007 1.87885 11.156 1.78774 11.1938C1.69663 11.2315 1.59898 11.2509 1.50036 11.2509C1.40175 11.2509 1.3041 11.2315 1.21299 11.1938C1.12188 11.156 1.0391 11.1007 0.969364 11.031C0.899632 10.9613 0.844317 10.8785 0.806579 10.7874C0.76884 10.6963 0.749416 10.5986 0.749416 10.5C0.749416 10.4014 0.76884 10.3037 0.806579 10.2126C0.844317 10.1215 0.899632 10.0387 0.969364 9.969L4.93986 6L0.969364 2.031C0.899519 1.96133 0.844104 1.87857 0.806295 1.78745C0.768485 1.69633 0.749023 1.59865 0.749023 1.5C0.749023 1.40135 0.768485 1.30366 0.806295 1.21255C0.844104 1.12143 0.899519 1.03867 0.969364 0.968997Z" fill="black"/>
</svg>
