<svg width="16" height="16" viewBox="0 0 16 16" fill="none" xmlns="http://www.w3.org/2000/svg">
<path d="M0.666504 7.99992C0.666504 7.99992 3.4585 3.99992 7.99984 3.99992C8.63117 3.99992 9.2265 4.07992 9.78517 4.21459L5.57317 8.42659C5.41588 8.08351 5.33404 7.71067 5.33317 7.33325C5.33317 6.70859 5.5565 6.14192 5.9165 5.68659C4.32184 6.22925 3.1065 7.27792 2.41317 7.99992C3.00441 8.61546 3.67206 9.15272 4.39984 9.59859L3.43317 10.5666C1.66517 9.41992 0.666504 7.99992 0.666504 7.99992ZM15.3332 7.99992C15.3332 7.99992 12.5412 11.9999 7.99984 11.9999C7.36917 11.9999 6.77584 11.9173 6.21584 11.7846L3.33317 14.6666L2.33317 13.6666L13.6665 2.33325L14.6665 3.33325L12.5685 5.43125C14.3332 6.57992 15.3332 7.99992 15.3332 7.99992ZM13.5898 8.00392C12.9982 7.38601 12.3288 6.84751 11.5985 6.40192L10.6665 7.33325C10.6665 8.80659 9.47317 9.99992 7.99984 9.99992L7.3685 10.6313C7.57517 10.6513 7.7845 10.6666 7.99984 10.6666C10.6518 10.6666 12.6285 9.01459 13.5898 8.00392Z" fill="#9E9E9E"/>
</svg>
