<svg width="16" height="8" viewBox="0 0 16 8" fill="none" xmlns="http://www.w3.org/2000/svg">
<path d="M7.99984 0C3.4585 0 0.666504 4 0.666504 4C0.666504 4 3.4585 8 7.99984 8C12.5412 8 15.3332 4 15.3332 4C15.3332 4 12.5412 0 7.99984 0ZM7.99984 6.66667C5.37117 6.66667 3.3825 5.01067 2.41317 4C3.1065 3.27667 4.32184 2.22867 5.9165 1.68667C5.54125 2.15369 5.33559 2.73423 5.33317 3.33333C5.33317 4.80667 6.5265 6 7.99984 6C9.47317 6 10.6665 4.80667 10.6665 3.33333C10.6665 2.70867 10.4432 2.142 10.0832 1.68667C11.6785 2.22867 12.8938 3.27733 13.5858 4C12.6152 5.012 10.6272 6.66667 7.99917 6.66667H7.99984Z" fill="#9E9E9E"/>
</svg>
