<svg width="98" height="130" viewBox="0 0 98 130" fill="none" xmlns="http://www.w3.org/2000/svg">
<g clip-path="url(#clip0_12390_17079)">
<path d="M33.5127 112.906C35.7929 109.484 36.8282 105.381 36.4215 101.278C36.0271 97.1873 34.2275 93.3445 31.331 90.4437C27.9662 87.2083 23.492 85.3984 18.833 85.3984C14.174 85.3984 9.69981 87.2083 6.33495 90.4437C2.18125 94.6461 0.381731 100.646 1.54033 106.46C2.69892 112.274 6.65541 117.121 12.1033 119.389C17.5511 121.658 23.7509 121.038 28.6564 117.753L39.8356 128.996C41.1668 130.335 43.3361 130.335 44.6796 128.996C46.0107 127.657 46.0107 125.476 44.6796 124.137L33.5127 112.906ZM26.5118 110.712C24.4781 112.757 21.7295 113.898 18.8576 113.898C15.9858 113.898 13.2372 112.757 11.2035 110.712C9.16981 108.666 8.03586 105.902 8.03586 103.014C8.03586 100.125 9.18213 97.3609 11.2035 95.3155C13.2372 93.2701 15.9858 92.1296 18.8576 92.1296C21.7295 92.1296 24.4781 93.2825 26.5118 95.3155C28.5455 97.3609 29.6794 100.125 29.6794 103.014C29.6794 105.902 28.5455 108.679 26.5118 110.712Z" fill="#D5D5D5"/>
<path d="M93.6614 27.8546L70.2923 4.35117C67.5191 1.54961 63.7474 -0.0123231 59.8156 7.32269e-05H20.4973C15.0741 7.32269e-05 9.84807 2.16943 6.00251 6.03707C2.15696 9.91711 0 15.1607 0 20.6275V95.4392C1.36813 91.7451 3.75928 88.5592 6.84065 86.2163V20.6275C6.84065 16.983 8.28273 13.4872 10.8464 10.9088C13.4101 8.33039 16.8859 6.88002 20.5219 6.88002H59.8403C61.9603 6.88002 63.994 7.72297 65.4853 9.23532L88.8298 32.7263C90.3335 34.2263 91.1717 36.2716 91.1717 38.4038V100.869C91.1717 104.513 89.7296 108.009 87.1659 110.6C84.6022 113.178 81.1264 114.629 77.4904 114.629H39.0595L45.8878 121.484H77.4904C82.9259 121.484 88.1519 119.314 91.9975 115.447C95.843 111.579 98 106.336 98 100.856V38.3914C98.0123 34.437 96.447 30.6437 93.6614 27.8546Z" fill="#D5D5D5"/>
<path d="M33.3634 63.8785H32.0446V55.6474C32.0446 54.2714 30.8736 53.2301 29.5055 53.2301C28.0511 53.2301 26.9665 54.2714 26.9665 55.6474V63.8785H19.3493C20.7174 60.7051 26.0297 47.7013 27.3855 44.5403C27.5211 44.2056 27.5211 43.9205 27.5211 43.6849C27.5211 42.3585 26.2023 41.2305 24.9821 41.2305C24.0453 41.2305 23.0963 41.8007 22.7265 42.6932L13.7042 64.5355C13.4207 65.0562 13.2852 65.8123 13.2852 65.9983C13.2852 67.3743 14.3698 68.6015 15.9228 68.6015H26.9665V73.3741C26.9665 74.7501 28.0511 75.7914 29.5055 75.7914C30.9106 75.7914 32.0446 74.7501 32.0446 73.3741V68.6015H33.3634C34.7315 68.6015 35.8038 67.5602 35.8038 66.2338C35.8038 64.957 34.7315 63.8785 33.3634 63.8785Z" fill="#494949"/>
<path d="M48.5468 41.1309C41.4473 41.1309 38.3906 46.1018 38.3906 52.2008V65.7251C38.3906 71.353 41.965 75.8405 48.5468 75.8405C55.0793 75.8405 58.703 71.353 58.703 65.7251V52.1884C58.703 46.0894 55.6093 41.1309 48.5468 41.1309ZM53.588 65.7127C53.588 68.9729 51.8008 71.1547 48.5592 71.1547C45.2683 71.1547 43.5304 68.9853 43.5304 65.7127V51.8165C43.5304 48.2711 44.9355 45.7671 48.5592 45.7671C52.1336 45.7671 53.588 48.2711 53.588 51.8165V65.7127Z" fill="#494949"/>
<path d="M82.2696 63.8785H80.9508V55.6474C80.9508 54.2714 79.7799 53.2301 78.4118 53.2301C76.9573 53.2301 75.8727 54.2714 75.8727 55.6474V63.8785H68.2556C69.6237 60.7051 74.936 47.7013 76.2918 44.5403C76.4274 44.2056 76.4274 43.9205 76.4274 43.6849C76.4274 42.3585 75.1085 41.2305 73.8883 41.2305C72.9516 41.2305 72.0025 41.8007 71.6327 42.6932L62.6105 64.5355C62.327 65.0562 62.1914 65.8123 62.1914 65.9983C62.1914 67.3743 63.276 68.6015 64.8291 68.6015H75.8727V73.3741C75.8727 74.7501 76.9573 75.7914 78.4118 75.7914C79.8169 75.7914 80.9508 74.7501 80.9508 73.3741V68.6015H82.2696C83.6378 68.6015 84.7101 67.5602 84.7101 66.2338C84.7101 64.957 83.6254 63.8785 82.2696 63.8785Z" fill="#494949"/>
</g>
<defs>
<clipPath id="clip0_12390_17079">
<rect width="98" height="130" fill="white"/>
</clipPath>
</defs>
</svg>
